<svg width="160" height="64" viewBox="0 0 175 63" fill="none" xmlns="http://www.w3.org/2000/svg">
    <path d="M73.12 21.8701H62.64L60.69 27.8301H54.92L64.23 0.560059H71.83L81.03 27.8401H75.07L73.12 21.8801V21.8701ZM64.23 16.7301H71.52L67.9 5.27006L64.24 16.7301H64.23Z" fill="white"></path>
    <path d="M96.62 27.8401H90.77V5.93006H83.01V0.560059H104.33V5.93006H96.61V27.8401H96.62Z" fill="white"></path>
    <path d="M122.61 28.3001C120.64 28.3001 118.84 27.9901 117.21 27.3801C115.59 26.7701 114.19 25.8701 113.02 24.6701C111.85 23.4701 110.95 22.0001 110.31 20.2501C109.67 18.5001 109.36 16.4801 109.36 14.1901C109.36 11.9001 109.69 9.88008 110.35 8.13008C111.01 6.38008 111.93 4.90008 113.1 3.71008C114.27 2.51008 115.65 1.61008 117.25 1.00008C118.85 0.390078 120.58 0.0800781 122.45 0.0800781C124.55 0.0800781 126.43 0.410078 128.08 1.05008C129.73 1.70008 131.12 2.63008 132.25 3.84008C133.38 5.05008 134.24 6.53008 134.84 8.28008C135.44 10.0301 135.74 12.0001 135.74 14.1901C135.74 16.6101 135.41 18.7001 134.75 20.4801C134.09 22.2601 133.16 23.7301 131.98 24.8901C130.8 26.0501 129.41 26.9001 127.81 27.4601C126.21 28.0201 124.48 28.3001 122.61 28.3001V28.3001ZM122.81 23.1601C123.8 23.1601 124.71 22.9801 125.54 22.6201C126.37 22.2601 127.09 21.7001 127.68 20.9601C128.28 20.2201 128.74 19.2901 129.06 18.1701C129.38 17.0501 129.55 15.7301 129.55 14.2001C129.55 11.1101 128.9 8.84008 127.6 7.40008C126.3 5.96008 124.59 5.24008 122.46 5.24008C121.5 5.24008 120.6 5.42008 119.75 5.78008C118.91 6.14008 118.17 6.70008 117.55 7.44008C116.93 8.18008 116.44 9.12008 116.09 10.2501C115.74 11.3801 115.56 12.7001 115.56 14.2101C115.56 15.7201 115.75 17.0701 116.13 18.1801C116.5 19.3001 117.02 20.2301 117.67 20.9701C118.32 21.7101 119.08 22.2601 119.97 22.6301C120.85 22.9901 121.8 23.1701 122.82 23.1701L122.81 23.1601Z" fill="white"></path>
    <path d="M174.53 27.8401H168.64L167.16 9.72006L161.55 27.8401H155.98L150.45 9.80006L148.97 27.8401H143.09L145.82 0.560059H152.8L158.96 21.1401L165.01 0.560059H171.75L174.52 27.8401H174.53Z" fill="white"></path>
    <path d="M55.89 58.06C56.46 58.46 57.24 58.86 58.22 59.25C59.2 59.64 60.34 59.84 61.62 59.84C63.28 59.84 64.51 59.49 65.32 58.77C66.13 58.06 66.53 57.05 66.53 55.75C66.53 55.04 66.44 54.44 66.26 53.95C66.08 53.46 65.8 53.04 65.41 52.67C65.02 52.3 64.52 51.98 63.92 51.69C63.32 51.41 62.59 51.1 61.73 50.77L60.87 50.45C59.97 50.09 59.18 49.72 58.5 49.33C57.82 48.94 57.27 48.48 56.83 47.94C56.39 47.41 56.06 46.78 55.83 46.07C55.6 45.36 55.49 44.53 55.49 43.58C55.49 41.56 56.2 40 57.61 38.88C59.02 37.77 60.97 37.21 63.46 37.21C64.22 37.21 64.93 37.26 65.6 37.37C66.26 37.48 66.85 37.6 67.36 37.74C67.87 37.88 68.29 38.03 68.62 38.18C68.95 38.34 69.19 38.46 69.33 38.55L68.51 41.29C67.61 40.86 66.7 40.57 65.77 40.42C64.84 40.27 64 40.19 63.24 40.19C61.84 40.19 60.77 40.47 60.02 41.02C59.27 41.58 58.9 42.43 58.9 43.56C58.9 44.06 58.96 44.5 59.08 44.89C59.2 45.28 59.43 45.66 59.77 46.01C60.11 46.37 60.59 46.72 61.21 47.06C61.83 47.4 62.62 47.77 63.59 48.15L64.51 48.51C65.6 48.94 66.5 49.39 67.2 49.86C67.9 50.34 68.45 50.86 68.85 51.43C69.25 52 69.53 52.62 69.68 53.3C69.84 53.98 69.91 54.72 69.91 55.52C69.91 56.71 69.72 57.75 69.32 58.65C68.92 59.55 68.38 60.31 67.67 60.93C66.96 61.55 66.11 62.02 65.13 62.33C64.15 62.65 63.06 62.81 61.88 62.81C60.55 62.81 59.29 62.64 58.09 62.29C56.89 61.94 55.86 61.49 54.98 60.92L55.87 58.04L55.89 58.06Z" fill="white"></path>
    <path d="M82 48.9501L92.96 37.5701H96.98L85.56 49.2401L97.73 62.4701H93.43L83.26 51.1601L82.01 52.3701V62.4701H78.81V37.5701H82.01V48.9501H82Z" fill="white"></path>
    <path d="M107.79 62.4701H104.59V37.5701H107.79V62.4701Z" fill="white"></path>
    <path d="M131.66 62.4701H117.72V37.5701H120.92V59.4801H131.66V62.4701V62.4701Z" fill="white"></path>
    <path d="M153.75 62.4701H139.81V37.5701H143.01V59.4801H153.75V62.4701V62.4701Z" fill="white"></path>
    <path d="M160.83 58.06C161.4 58.46 162.18 58.86 163.16 59.25C164.14 59.64 165.28 59.84 166.56 59.84C168.22 59.84 169.45 59.49 170.26 58.77C171.07 58.06 171.47 57.05 171.47 55.75C171.47 55.04 171.38 54.44 171.2 53.95C171.02 53.46 170.74 53.04 170.35 52.67C169.96 52.3 169.46 51.98 168.86 51.69C168.26 51.41 167.53 51.1 166.67 50.77L165.81 50.45C164.91 50.09 164.12 49.72 163.44 49.33C162.76 48.94 162.21 48.48 161.77 47.94C161.33 47.41 161 46.78 160.77 46.07C160.54 45.36 160.43 44.53 160.43 43.58C160.43 41.56 161.14 40 162.55 38.88C163.96 37.77 165.91 37.21 168.4 37.21C169.16 37.21 169.87 37.26 170.54 37.37C171.2 37.48 171.79 37.6 172.3 37.74C172.81 37.88 173.23 38.03 173.56 38.18C173.89 38.34 174.13 38.46 174.27 38.55L173.45 41.29C172.55 40.86 171.64 40.57 170.71 40.42C169.78 40.27 168.94 40.19 168.18 40.19C166.78 40.19 165.71 40.47 164.96 41.02C164.21 41.58 163.84 42.43 163.84 43.56C163.84 44.06 163.9 44.5 164.02 44.89C164.14 45.28 164.37 45.66 164.71 46.01C165.05 46.37 165.53 46.72 166.15 47.06C166.77 47.4 167.56 47.77 168.53 48.15L169.45 48.51C170.54 48.94 171.44 49.39 172.14 49.86C172.84 50.34 173.39 50.86 173.79 51.43C174.19 52 174.47 52.62 174.62 53.3C174.78 53.98 174.85 54.72 174.85 55.52C174.85 56.71 174.66 57.75 174.26 58.65C173.86 59.55 173.32 60.31 172.61 60.93C171.9 61.55 171.05 62.02 170.07 62.33C169.09 62.65 168 62.81 166.82 62.81C165.49 62.81 164.23 62.64 163.03 62.29C161.83 61.94 160.8 61.49 159.92 60.92L160.81 58.04L160.83 58.06Z" fill="white"></path>
    <path d="M21.45 51.52H21.43C21 51.84 20.55 52.15 20.1 52.47C16.14 55.42 12.99 58.9 10.41 62.66H32.44C29.86 58.85 26.63 55.3 22.62 52.34C22.2 52.07 21.84 51.79 21.45 51.52" fill="#11559B"></path>
    <path d="M22.19 0H0.03C0.03 0 0 0.88 0 2.4C0 1.6 0 0.98 0.02 0.6C2.55 5.18 5.84 9.82 9.91 14.25C9.94 14.27 9.98 14.32 10.04 14.35C10.72 13.35 11.42 12.35 12.17 11.35C15.4 6.99 18.85 3.15 22.19 0Z" fill="#EC6411"></path>
    <path d="M0.02 0.600098C0 0.980098 0 1.6001 0 2.4001C0 6.6101 0.42 15.8001 3.5 25.5901C5.18 22.0301 7.38 18.2101 10.04 14.3501C9.97 14.3201 9.94 14.2701 9.91 14.2501C5.84 9.8201 2.55 5.1801 0.02 0.600098Z" fill="#F18640"></path>
    <path d="M10.04 14.3501C7.38 18.2101 5.18 22.0301 3.5 25.5901C3.42 25.3201 3.33 25.0601 3.25 24.7701C5.03 30.9001 7.86 37.2901 12.39 42.9701C17.2 40.0401 22.81 34.9101 28.17 28.3701C22.11 25.3401 15.78 20.5601 10.04 14.3501V14.3501Z" fill="#EEAD00"></path>
    <path d="M42.86 0.580078C41.64 7.14008 37.3 16.2501 30.57 25.2401C29.77 26.3101 28.97 27.3701 28.17 28.3701C31.3 29.9301 34.36 31.0301 37.23 31.6001C43.21 17.6101 42.94 3.09008 42.86 0.580078" fill="#6BB1E2"></path>
    <path d="M28.17 28.3701C22.81 34.9101 17.2 40.0401 12.39 42.9701C14.85 46.1301 17.83 49.0101 21.43 51.4801H21.45C28.56 46.6201 33.34 40.0101 36.52 33.1801C36.75 32.6501 36.99 32.1101 37.24 31.6001C34.38 31.0301 31.31 29.9301 28.18 28.3701" fill="#11559B"></path>
</svg>