<svg version="1.2" xmlns="http://www.w3.org/2000/svg" viewBox="0 0 175 71" width="175" height="71"><style>.a{fill:#11559b}.b{fill:#ec6411}.c{fill:#f18640}.d{fill:#eead00}.e{fill:#6bb1e2}</style><path fill-rule="evenodd" d="m73.1 25.9h-10.5l-1.9 5.9h-5.8l9.3-27.2h7.6l9.2 27.2h-5.9l-2-5.9zm-1.6-5.2l-3.6-11.4-3.7 11.4z"/><path  d="m96.6 31.8h-5.8v-21.9h-7.8v-5.3h21.3v5.3h-7.7v21.9z"/><path fill-rule="evenodd" d="m122.6 32.3q-2.9 0-5.4-0.9-2.4-0.9-4.2-2.7-1.7-1.8-2.7-4.4-0.9-2.7-0.9-6.1 0-3.4 1-6.1 0.9-2.6 2.7-4.4 1.8-1.8 4.2-2.7 2.3-0.9 5.1-0.9 3.2 0 5.7 1 2.5 0.9 4.2 2.7 1.6 1.9 2.5 4.5 0.9 2.6 0.9 5.9 0 3.6-0.9 6.3-1 2.7-2.8 4.4-1.8 1.7-4.2 2.6-2.4 0.8-5.2 0.8zm0.2-5.1q1.5 0 2.7-0.6 1.3-0.5 2.2-1.6 0.9-1.1 1.4-2.8 0.4-1.7 0.5-4 0-4.6-2-6.8-1.9-2.2-5.1-2.2-1.5 0-2.7 0.6-1.3 0.5-2.2 1.6-1 1.2-1.5 2.9-0.5 1.6-0.5 3.9c0 1.5 0.2 2.9 0.5 4q0.6 1.7 1.6 2.8 0.9 1.1 2.3 1.6 1.3 0.6 2.8 0.6z"/><path  d="m174.5 31.8h-5.9l-1.4-18.1-5.6 18.1h-5.6l-5.6-18-1.4 18h-5.9l2.7-27.2h7l6.2 20.5 6-20.5h6.7l2.8 27.2z"/><path  d="m55.9 62.1q0.8 0.6 2.3 1.1 1.5 0.6 3.4 0.6 2.5 0 3.7-1 1.2-1.1 1.2-3.1 0-1-0.2-1.7-0.3-0.8-0.9-1.3-0.6-0.6-1.5-1-0.9-0.4-2.2-0.9l-0.8-0.3q-1.4-0.6-2.4-1.2-1-0.6-1.7-1.4-0.6-0.8-1-1.8-0.3-1.1-0.3-2.5 0-3 2.1-4.7 2.1-1.7 5.9-1.7 1.1 0 2.1 0.2 1 0.1 1.8 0.3 0.7 0.3 1.2 0.5 0.5 0.2 0.7 0.3l-0.8 2.8q-1.3-0.7-2.7-0.9-1.4-0.2-2.6-0.2-2.1 0-3.2 0.8-1.1 0.9-1.1 2.6 0 0.7 0.2 1.3 0.2 0.6 0.7 1.1 0.5 0.5 1.4 1.1 0.9 0.5 2.4 1l0.9 0.4q1.6 0.7 2.7 1.4 1.1 0.7 1.6 1.5 0.7 0.9 0.9 1.9 0.2 1 0.2 2.2 0 1.8-0.6 3.2-0.6 1.3-1.6 2.2-1.1 1-2.6 1.4-1.4 0.5-3.2 0.5-2 0-3.8-0.5-1.8-0.5-3.1-1.4l0.9-2.9z"/><path  d="m82 53l11-11.4h4l-11.4 11.6 12.1 13.3h-4.3l-10.1-11.3-1.3 1.2v10.1h-3.2v-24.9h3.2v11.4z"/><path  d="m107.8 66.5h-3.2v-24.9h3.2z"/><path  d="m131.7 66.5h-14v-24.9h3.2v21.9h10.8z"/><path  d="m153.8 66.5h-14v-24.9h3.2v21.9h10.7z"/><path  d="m160.8 62.1q0.9 0.6 2.4 1.1 1.4 0.6 3.4 0.6 2.4 0 3.7-1 1.2-1.1 1.2-3.1 0-1-0.3-1.7-0.3-0.8-0.9-1.3-0.5-0.6-1.4-1-0.9-0.4-2.2-0.9l-0.9-0.3q-1.3-0.6-2.4-1.2-1-0.6-1.6-1.4-0.7-0.8-1-1.8-0.4-1.1-0.4-2.5 0-3 2.2-4.7 2.1-1.7 5.8-1.7 1.1 0 2.1 0.2 1 0.1 1.8 0.3 0.8 0.3 1.3 0.5 0.5 0.2 0.7 0.3l-0.9 2.8q-1.3-0.7-2.7-0.9-1.4-0.2-2.5-0.2-2.1 0-3.2 0.8-1.2 0.9-1.2 2.6 0 0.7 0.2 1.3 0.2 0.6 0.7 1.1 0.5 0.5 1.4 1.1 1 0.5 2.4 1l0.9 0.4q1.7 0.7 2.7 1.4 1.1 0.7 1.7 1.5 0.6 0.9 0.8 1.9 0.3 1 0.2 2.2 0.1 1.8-0.5 3.2-0.6 1.3-1.7 2.2-1.1 1-2.5 1.4-1.5 0.5-3.3 0.5-2 0-3.8-0.5-1.8-0.5-3.1-1.4l0.9-2.9z"/><path class="a" d="m21.4 55.5q-0.6 0.5-1.3 1c-4 2.9-7.1 6.4-9.7 10.2h22c-2.5-3.8-5.8-7.4-9.8-10.4-0.4-0.2-0.8-0.5-1.1-0.8z"/><path class="b" d="m22.2 4h-22.2c0 0 0 0.9 0 2.4q0-1.2 0-1.8c2.6 4.6 5.8 9.2 9.9 13.7q0.1 0 0.1 0.1 1.1-1.5 2.2-3c3.2-4.4 6.7-8.2 10-11.4z"/><path class="c" d="m0 4.6c0 0.4 0 1 0 1.8 0 4.2 0.4 13.4 3.5 23.2 1.7-3.6 3.9-7.4 6.5-11.2 0-0.1-0.1-0.1-0.1-0.1-4.1-4.5-7.4-9.1-9.9-13.7z"/><path class="d" d="m10 18.4c-2.6 3.8-4.8 7.6-6.5 11.2q-0.1-0.4-0.3-0.8c1.8 6.1 4.7 12.5 9.2 18.2 4.8-3 10.4-8.1 15.8-14.6-6.1-3.1-12.4-7.8-18.2-14z"/><path class="e" d="m42.9 4.6c-1.3 6.5-5.6 15.7-12.3 24.6q-1.2 1.7-2.4 3.2c3.1 1.5 6.2 2.6 9 3.2 6-14 5.7-28.5 5.7-31z"/><path class="a" d="m28.2 32.4c-5.4 6.5-11 11.6-15.8 14.6 2.5 3.1 5.4 6 9 8.5h0.1c7.1-4.9 11.8-11.5 15-18.3q0.4-0.8 0.7-1.6c-2.8-0.6-5.9-1.7-9-3.2z"/></svg>